<mxfile host="app.diagrams.net" modified="2024-03-13T13:55:21.884Z" agent="Mozilla/5.0 (Windows NT 10.0; Win64; x64) AppleWebKit/537.36 (KHTML, like Gecko) Chrome/122.0.0.0 Safari/537.36" etag="L10mD3AuxXxXAsf-C0AG" version="24.0.5" type="device">
  <diagram name="Page-1" id="UBH2oY3vQnfjVQV_58VH">
    <mxGraphModel dx="2629" dy="798" grid="1" gridSize="10" guides="1" tooltips="1" connect="1" arrows="1" fold="1" page="1" pageScale="1" pageWidth="827" pageHeight="1169" math="0" shadow="0">
      <root>
        <mxCell id="0" />
        <mxCell id="1" parent="0" />
        <mxCell id="stnmt_BLtRVrJDvMeecF-1" value="" style="html=1;verticalAlign=bottom;startArrow=oval;startFill=1;endArrow=open;startSize=14;curved=0;rounded=0;endFill=0;" parent="1" edge="1">
          <mxGeometry width="60" relative="1" as="geometry">
            <mxPoint x="80" y="80" as="sourcePoint" />
            <mxPoint x="80" y="120" as="targetPoint" />
          </mxGeometry>
        </mxCell>
        <mxCell id="stnmt_BLtRVrJDvMeecF-4" style="edgeStyle=orthogonalEdgeStyle;rounded=0;orthogonalLoop=1;jettySize=auto;html=1;entryX=0;entryY=0.5;entryDx=0;entryDy=0;endArrow=open;endFill=0;" parent="1" source="stnmt_BLtRVrJDvMeecF-2" target="t9dFOqBbaQMAALfSwQGb-7" edge="1">
          <mxGeometry relative="1" as="geometry" />
        </mxCell>
        <mxCell id="stnmt_BLtRVrJDvMeecF-2" value="Въвежда креденции" style="rounded=1;whiteSpace=wrap;html=1;" parent="1" vertex="1">
          <mxGeometry x="20" y="120" width="120" height="60" as="geometry" />
        </mxCell>
        <mxCell id="stnmt_BLtRVrJDvMeecF-6" value="" style="edgeStyle=orthogonalEdgeStyle;rounded=0;orthogonalLoop=1;jettySize=auto;html=1;endArrow=open;endFill=0;" parent="1" source="stnmt_BLtRVrJDvMeecF-3" target="stnmt_BLtRVrJDvMeecF-5" edge="1">
          <mxGeometry relative="1" as="geometry" />
        </mxCell>
        <mxCell id="stnmt_BLtRVrJDvMeecF-3" value="Проверка на брой опити за логване" style="rounded=1;whiteSpace=wrap;html=1;" parent="1" vertex="1">
          <mxGeometry x="440" y="120" width="120" height="60" as="geometry" />
        </mxCell>
        <mxCell id="stnmt_BLtRVrJDvMeecF-9" style="edgeStyle=orthogonalEdgeStyle;rounded=0;orthogonalLoop=1;jettySize=auto;html=1;entryX=0.75;entryY=1;entryDx=0;entryDy=0;endArrow=open;endFill=0;" parent="1" source="stnmt_BLtRVrJDvMeecF-27" target="stnmt_BLtRVrJDvMeecF-2" edge="1">
          <mxGeometry relative="1" as="geometry" />
        </mxCell>
        <mxCell id="stnmt_BLtRVrJDvMeecF-14" style="edgeStyle=orthogonalEdgeStyle;rounded=0;orthogonalLoop=1;jettySize=auto;html=1;entryX=0;entryY=0.5;entryDx=0;entryDy=0;endArrow=open;endFill=0;" parent="1" source="stnmt_BLtRVrJDvMeecF-5" target="stnmt_BLtRVrJDvMeecF-13" edge="1">
          <mxGeometry relative="1" as="geometry">
            <Array as="points">
              <mxPoint x="630" y="280" />
              <mxPoint x="630" y="150" />
            </Array>
          </mxGeometry>
        </mxCell>
        <mxCell id="stnmt_BLtRVrJDvMeecF-5" value="Текущ брой&amp;nbsp;&lt;span style=&quot;background-color: initial;&quot;&gt;опити&lt;/span&gt;&lt;div&gt;&lt;span style=&quot;background-color: initial;&quot;&gt;&amp;nbsp;за логване &amp;lt; макс&lt;/span&gt;&lt;/div&gt;&lt;div&gt;&lt;span style=&quot;background-color: initial;&quot;&gt;позволени&lt;/span&gt;&lt;/div&gt;" style="rhombus;whiteSpace=wrap;html=1;rounded=0;fontSize=12;verticalAlign=middle;" parent="1" vertex="1">
          <mxGeometry x="410" y="235" width="180" height="90" as="geometry" />
        </mxCell>
        <mxCell id="stnmt_BLtRVrJDvMeecF-11" value="не" style="text;html=1;align=center;verticalAlign=bottom;resizable=0;points=[];autosize=1;strokeColor=none;fillColor=none;" parent="1" vertex="1">
          <mxGeometry x="380" y="250" width="40" height="30" as="geometry" />
        </mxCell>
        <mxCell id="stnmt_BLtRVrJDvMeecF-17" style="edgeStyle=orthogonalEdgeStyle;rounded=0;orthogonalLoop=1;jettySize=auto;html=1;entryX=0.5;entryY=0;entryDx=0;entryDy=0;endArrow=open;endFill=0;" parent="1" source="stnmt_BLtRVrJDvMeecF-13" target="stnmt_BLtRVrJDvMeecF-16" edge="1">
          <mxGeometry relative="1" as="geometry" />
        </mxCell>
        <mxCell id="stnmt_BLtRVrJDvMeecF-13" value="Верификация на подадените креденции" style="rounded=1;whiteSpace=wrap;html=1;" parent="1" vertex="1">
          <mxGeometry x="660" y="120" width="120" height="60" as="geometry" />
        </mxCell>
        <mxCell id="stnmt_BLtRVrJDvMeecF-15" value="да" style="text;html=1;align=center;verticalAlign=bottom;resizable=0;points=[];autosize=1;strokeColor=none;fillColor=none;" parent="1" vertex="1">
          <mxGeometry x="580" y="250" width="40" height="30" as="geometry" />
        </mxCell>
        <mxCell id="stnmt_BLtRVrJDvMeecF-19" style="edgeStyle=orthogonalEdgeStyle;rounded=0;orthogonalLoop=1;jettySize=auto;html=1;entryX=0.5;entryY=0;entryDx=0;entryDy=0;endArrow=open;endFill=0;exitX=0.5;exitY=1;exitDx=0;exitDy=0;" parent="1" source="stnmt_BLtRVrJDvMeecF-16" target="stnmt_BLtRVrJDvMeecF-18" edge="1">
          <mxGeometry relative="1" as="geometry">
            <mxPoint x="750" y="390" as="sourcePoint" />
          </mxGeometry>
        </mxCell>
        <mxCell id="stnmt_BLtRVrJDvMeecF-34" style="edgeStyle=orthogonalEdgeStyle;rounded=0;orthogonalLoop=1;jettySize=auto;html=1;entryX=1;entryY=0.5;entryDx=0;entryDy=0;endArrow=open;endFill=0;" parent="1" source="stnmt_BLtRVrJDvMeecF-40" target="stnmt_BLtRVrJDvMeecF-33" edge="1">
          <mxGeometry relative="1" as="geometry" />
        </mxCell>
        <mxCell id="stnmt_BLtRVrJDvMeecF-16" value="ОК?" style="rhombus;whiteSpace=wrap;html=1;rounded=0;" parent="1" vertex="1">
          <mxGeometry x="687.5" y="360" width="65" height="60" as="geometry" />
        </mxCell>
        <mxCell id="stnmt_BLtRVrJDvMeecF-32" style="edgeStyle=orthogonalEdgeStyle;rounded=0;orthogonalLoop=1;jettySize=auto;html=1;exitX=0;exitY=0.5;exitDx=0;exitDy=0;entryX=1;entryY=0.5;entryDx=0;entryDy=0;endArrow=open;endFill=0;" parent="1" source="stnmt_BLtRVrJDvMeecF-57" target="stnmt_BLtRVrJDvMeecF-22" edge="1">
          <mxGeometry relative="1" as="geometry" />
        </mxCell>
        <mxCell id="stnmt_BLtRVrJDvMeecF-18" value="Нулиране на опитите за логване, получени от текущото IP" style="rounded=1;whiteSpace=wrap;html=1;" parent="1" vertex="1">
          <mxGeometry x="660" y="480" width="120" height="60" as="geometry" />
        </mxCell>
        <mxCell id="stnmt_BLtRVrJDvMeecF-20" value="да" style="text;html=1;align=center;verticalAlign=bottom;resizable=0;points=[];autosize=1;strokeColor=none;fillColor=none;" parent="1" vertex="1">
          <mxGeometry x="712.5" y="410" width="40" height="30" as="geometry" />
        </mxCell>
        <mxCell id="stnmt_BLtRVrJDvMeecF-59" style="edgeStyle=orthogonalEdgeStyle;rounded=0;orthogonalLoop=1;jettySize=auto;html=1;endArrow=open;endFill=0;exitX=0.5;exitY=1;exitDx=0;exitDy=0;entryX=0.5;entryY=0;entryDx=0;entryDy=0;" parent="1" source="stnmt_BLtRVrJDvMeecF-22" target="t9dFOqBbaQMAALfSwQGb-10" edge="1">
          <mxGeometry relative="1" as="geometry">
            <mxPoint x="270" y="580" as="targetPoint" />
          </mxGeometry>
        </mxCell>
        <mxCell id="stnmt_BLtRVrJDvMeecF-22" value="Съхранение на JWT и екстракция на потребителската информация" style="rounded=1;whiteSpace=wrap;html=1;" parent="1" vertex="1">
          <mxGeometry x="210" y="480" width="120" height="60" as="geometry" />
        </mxCell>
        <mxCell id="stnmt_BLtRVrJDvMeecF-28" value="" style="edgeStyle=orthogonalEdgeStyle;rounded=0;orthogonalLoop=1;jettySize=auto;html=1;entryX=1;entryY=0.5;entryDx=0;entryDy=0;endArrow=open;endFill=0;" parent="1" source="stnmt_BLtRVrJDvMeecF-5" target="stnmt_BLtRVrJDvMeecF-27" edge="1">
          <mxGeometry relative="1" as="geometry">
            <mxPoint x="410" y="280" as="sourcePoint" />
            <mxPoint x="150" y="180" as="targetPoint" />
          </mxGeometry>
        </mxCell>
        <mxCell id="stnmt_BLtRVrJDvMeecF-27" value="Съобщ-е за твърде много неуспешни опити" style="rounded=1;whiteSpace=wrap;html=1;" parent="1" vertex="1">
          <mxGeometry x="210" y="250" width="120" height="60" as="geometry" />
        </mxCell>
        <mxCell id="stnmt_BLtRVrJDvMeecF-49" style="edgeStyle=orthogonalEdgeStyle;rounded=0;orthogonalLoop=1;jettySize=auto;html=1;entryX=0.5;entryY=1;entryDx=0;entryDy=0;endArrow=open;endFill=0;" parent="1" source="stnmt_BLtRVrJDvMeecF-33" target="stnmt_BLtRVrJDvMeecF-2" edge="1">
          <mxGeometry relative="1" as="geometry" />
        </mxCell>
        <mxCell id="stnmt_BLtRVrJDvMeecF-33" value="Съобщ-е за грешни креденции" style="rounded=1;whiteSpace=wrap;html=1;" parent="1" vertex="1">
          <mxGeometry x="210" y="360" width="120" height="60" as="geometry" />
        </mxCell>
        <mxCell id="stnmt_BLtRVrJDvMeecF-37" value="не" style="text;html=1;align=center;verticalAlign=bottom;resizable=0;points=[];autosize=1;strokeColor=none;fillColor=none;" parent="1" vertex="1">
          <mxGeometry x="660" y="360" width="40" height="30" as="geometry" />
        </mxCell>
        <mxCell id="stnmt_BLtRVrJDvMeecF-41" value="" style="edgeStyle=orthogonalEdgeStyle;rounded=0;orthogonalLoop=1;jettySize=auto;html=1;entryX=1;entryY=0.5;entryDx=0;entryDy=0;endArrow=open;endFill=0;" parent="1" source="stnmt_BLtRVrJDvMeecF-16" target="stnmt_BLtRVrJDvMeecF-40" edge="1">
          <mxGeometry relative="1" as="geometry">
            <mxPoint x="688" y="390" as="sourcePoint" />
            <mxPoint x="340" y="390" as="targetPoint" />
          </mxGeometry>
        </mxCell>
        <mxCell id="stnmt_BLtRVrJDvMeecF-40" value="Инкрементиране на неуспешните опити, получени от текущото IP" style="rounded=1;whiteSpace=wrap;html=1;" parent="1" vertex="1">
          <mxGeometry x="440" y="360" width="120" height="60" as="geometry" />
        </mxCell>
        <mxCell id="stnmt_BLtRVrJDvMeecF-47" value="" style="ellipse;whiteSpace=wrap;html=1;aspect=fixed;" parent="1" vertex="1">
          <mxGeometry x="260" y="710" width="20" height="20" as="geometry" />
        </mxCell>
        <mxCell id="stnmt_BLtRVrJDvMeecF-48" value="" style="ellipse;whiteSpace=wrap;html=1;aspect=fixed;labelBackgroundColor=#000000;fillColor=#000000;" parent="1" vertex="1">
          <mxGeometry x="265" y="715" width="10" height="10" as="geometry" />
        </mxCell>
        <mxCell id="stnmt_BLtRVrJDvMeecF-58" value="" style="edgeStyle=orthogonalEdgeStyle;rounded=0;orthogonalLoop=1;jettySize=auto;html=1;exitX=0;exitY=0.5;exitDx=0;exitDy=0;entryX=1;entryY=0.5;entryDx=0;entryDy=0;endArrow=open;endFill=0;" parent="1" source="stnmt_BLtRVrJDvMeecF-18" target="stnmt_BLtRVrJDvMeecF-57" edge="1">
          <mxGeometry relative="1" as="geometry">
            <mxPoint x="660" y="510" as="sourcePoint" />
            <mxPoint x="340" y="510" as="targetPoint" />
          </mxGeometry>
        </mxCell>
        <mxCell id="stnmt_BLtRVrJDvMeecF-57" value="Генериране, подписване и изпращане на JWT" style="rounded=1;whiteSpace=wrap;html=1;" parent="1" vertex="1">
          <mxGeometry x="440" y="480" width="120" height="60" as="geometry" />
        </mxCell>
        <mxCell id="t9dFOqBbaQMAALfSwQGb-1" value="" style="endArrow=none;html=1;rounded=0;strokeWidth=2;" edge="1" parent="1">
          <mxGeometry width="50" height="50" relative="1" as="geometry">
            <mxPoint y="50" as="sourcePoint" />
            <mxPoint x="800" y="50" as="targetPoint" />
          </mxGeometry>
        </mxCell>
        <mxCell id="t9dFOqBbaQMAALfSwQGb-2" value="" style="endArrow=none;html=1;rounded=0;strokeWidth=2;" edge="1" parent="1">
          <mxGeometry width="50" height="50" relative="1" as="geometry">
            <mxPoint x="170" y="740" as="sourcePoint" />
            <mxPoint x="170" y="15" as="targetPoint" />
          </mxGeometry>
        </mxCell>
        <mxCell id="t9dFOqBbaQMAALfSwQGb-3" value="Client" style="text;html=1;align=center;verticalAlign=bottom;resizable=0;points=[];autosize=1;strokeColor=none;fillColor=none;" vertex="1" parent="1">
          <mxGeometry x="55" y="10" width="50" height="30" as="geometry" />
        </mxCell>
        <mxCell id="t9dFOqBbaQMAALfSwQGb-4" value="" style="endArrow=none;html=1;rounded=0;strokeWidth=2;" edge="1" parent="1">
          <mxGeometry width="50" height="50" relative="1" as="geometry">
            <mxPoint x="370" y="740" as="sourcePoint" />
            <mxPoint x="370" y="20" as="targetPoint" />
          </mxGeometry>
        </mxCell>
        <mxCell id="t9dFOqBbaQMAALfSwQGb-5" value="Security System FE" style="text;html=1;align=center;verticalAlign=bottom;resizable=0;points=[];autosize=1;strokeColor=none;fillColor=none;" vertex="1" parent="1">
          <mxGeometry x="205" y="10" width="130" height="30" as="geometry" />
        </mxCell>
        <mxCell id="t9dFOqBbaQMAALfSwQGb-6" value="Security System BE" style="text;html=1;align=center;verticalAlign=bottom;resizable=0;points=[];autosize=1;strokeColor=none;fillColor=none;" vertex="1" parent="1">
          <mxGeometry x="535" y="10" width="130" height="30" as="geometry" />
        </mxCell>
        <mxCell id="t9dFOqBbaQMAALfSwQGb-7" value="Изготвяне и изпращане на Auth заявка" style="rounded=1;whiteSpace=wrap;html=1;" vertex="1" parent="1">
          <mxGeometry x="210" y="120" width="120" height="60" as="geometry" />
        </mxCell>
        <mxCell id="t9dFOqBbaQMAALfSwQGb-8" style="edgeStyle=orthogonalEdgeStyle;rounded=0;orthogonalLoop=1;jettySize=auto;html=1;entryX=0;entryY=0.5;entryDx=0;entryDy=0;endArrow=open;endFill=0;exitX=1;exitY=0.5;exitDx=0;exitDy=0;" edge="1" parent="1" source="t9dFOqBbaQMAALfSwQGb-7" target="stnmt_BLtRVrJDvMeecF-3">
          <mxGeometry relative="1" as="geometry">
            <mxPoint x="330" y="149.58" as="sourcePoint" />
            <mxPoint x="400" y="149.58" as="targetPoint" />
          </mxGeometry>
        </mxCell>
        <mxCell id="t9dFOqBbaQMAALfSwQGb-10" value="Пренасочване към таблото за управление" style="rounded=1;whiteSpace=wrap;html=1;" vertex="1" parent="1">
          <mxGeometry x="210" y="600" width="120" height="60" as="geometry" />
        </mxCell>
        <mxCell id="t9dFOqBbaQMAALfSwQGb-11" style="edgeStyle=orthogonalEdgeStyle;rounded=0;orthogonalLoop=1;jettySize=auto;html=1;endArrow=open;endFill=0;exitX=0.5;exitY=1;exitDx=0;exitDy=0;entryX=0.5;entryY=0;entryDx=0;entryDy=0;" edge="1" parent="1" source="t9dFOqBbaQMAALfSwQGb-10" target="stnmt_BLtRVrJDvMeecF-47">
          <mxGeometry relative="1" as="geometry">
            <mxPoint x="269.66" y="660" as="sourcePoint" />
            <mxPoint x="269.66" y="720" as="targetPoint" />
          </mxGeometry>
        </mxCell>
      </root>
    </mxGraphModel>
  </diagram>
</mxfile>
